<svg width="361" height="361" fill="none" xmlns="http://www.w3.org/2000/svg"><path d="M318.228 180.676c0 74.11-60.282 134.194-134.651 134.194-74.369 0-134.651-60.084-134.651-134.194 0-74.11 60.282-134.195 134.651-134.195 74.369 0 134.651 60.085 134.651 134.195z" stroke="#EC3F2E" stroke-width="2"/><path d="M176.46 360.676l2.187-30.754-12.035-.852c-4.849-.343-7.508.337-10.244 2.705-3.57 3.09-4.891 7.598-5.217 12.176-.35 4.924.957 9.184 3.714 12.027 2.756 2.843 6.053 3.598 9.863 3.867l11.732.831zm-5.042-4.959l-6.018-.426c-6.754-.478-9.267-4.91-8.819-11.216.449-6.306 2.781-10.96 10.011-10.448l6.364.45-1.538 21.64zm-38.231.292l5.319 1.27 7.193-29.984-5.318-1.27-7.194 29.984zm-32.551-27.765l12.198 5.131 1.619-3.83-7.679-3.23c1.805-4.27 5.949-6.943 11.148-4.756 5.639 2.372 7.295 7.815 4.462 14.519-2.8 6.623-7.896 9.319-13.375 7.014-3.879-1.632-5.762-4.868-4.928-8.511l-4.839-2.036c-1.974 6.453 2.038 12.23 7.956 14.72 8.799 3.701 16.768-.888 20.259-9.147 3.693-8.738.727-16.988-7.272-20.353-3.799-1.599-7.098-1.483-10.598.334l.674-3.711-3.2-1.346-6.425 15.202zm-20.622 3.34l4.625 2.913 16.498-26.069-4.624-2.913-16.499 26.069zm-29.536-23.321l19.31 16.046 3-3.593-7.57-6.291 16.776-20.097-4.168-3.464-16.778 20.097-7.57-6.291-3 3.593zm-11.844-14.737l3.724 4.4 31.345-10.821-3.613-4.268-8.227 2.964-7.897-9.329 4.364-7.53-3.753-4.433-15.943 29.017zm13.14-13.336l6.076 7.179-13.057 4.709 6.98-11.888zm-13.98-36.416l8.04 13.468-22.524 13.382 2.798 4.688 26.551-15.775-10.837-18.156-4.028 2.393zm-19.687-19.045l3.56 12.18 4.417-1.285-3.56-12.18-4.417 1.285zM.37 192.342c.873 9.4 8.465 14.178 17.497 13.344 9.594-.886 15.568-7.439 14.752-16.235-.812-8.753-7.894-14.144-17.488-13.258-9.552.883-15.564 7.483-14.76 16.149zm4.547-.333c-.529-5.691 3.63-9.728 10.675-10.379 7.044-.65 11.961 2.548 12.481 8.154.536 5.777-3.622 9.814-10.796 10.477-6.959.643-11.836-2.603-12.36-8.252zm-1.589-43.934L.84 173.023l4.664.463.976-9.781 26.086 2.589.537-5.386-26.086-2.589.975-9.781-4.664-.463zm9.29-32.445l-7.07 24.059 4.498 1.316 2.772-9.433 25.156 7.358 1.527-5.194-25.157-7.358 2.772-9.433-4.498-1.315zm15.167-30.21l-10.107 19.793 27.535 13.995 10.225-20.025L51.3 97.08l-7.782 15.241-8.121-4.128 7.112-13.929-3.906-1.985-7.112 13.928-7.31-3.715 7.665-15.009-4.061-2.064zm22.498-29.141L34.795 75.858l24.258 19.1 3.361-4.249-20.578-16.203 8.766-11.081L71.18 79.628l3.361-4.249-24.258-19.1zm26.311-22.666L59.647 48.021l20.042 23.467L96.835 56.91l-3.012-3.526-13.05 11.093-5.91-6.92 11.925-10.14-2.843-3.328-11.926 10.138L66.699 48l12.85-10.925-2.955-3.46zm46.339 8.917l-15.2-26.844-17.572 9.904 8.288 15.87c3.638 6.951 2.804 8.913.877 10-.378.212-1.327.648-2.022.741l2.05 3.62c.808-.158 2.053-.511 3.111-1.108 3.854-2.172 5.229-6.876 1.283-14.549l-6.746-13.058 8.313-4.686 12.895 22.772 4.723-2.662zm25.503-18.023c-1.896-5.76-6.553-7.835-12.986-5.727l-7.835 2.567-3.683-11.19-5.155 1.688 9.642 29.292 12.989-4.255c6.392-2.094 8.937-6.575 7.028-12.375zm-5.114 1.812c1.043 3.168-.12 5.326-3.501 6.434l-7.629 2.5-3.196-9.71 7.546-2.472c3.217-1.054 5.764.162 6.78 3.248zM193.028.676l-3.206 30.664 12 1.25c4.835.503 7.515-.09 10.328-2.365 3.671-2.97 5.141-7.432 5.618-11.998.514-4.91-.651-9.21-3.312-12.143-2.661-2.932-5.931-3.795-9.729-4.19L193.028.675zm4.875 5.122l6.001.625c6.734.7 9.099 5.213 8.441 11.501-.657 6.288-3.143 10.862-10.352 10.112l-6.346-.66 2.256-21.578zm38.962 3.127l-5.213-1.65-9.344 29.388 5.213 1.65 9.344-29.388zm32.648 29.205l-12.02-5.532-1.745 3.775 7.567 3.483c-1.946 4.207-6.177 6.742-11.3 4.384-5.557-2.557-7.032-8.052-3.978-14.658 3.018-6.527 8.201-9.053 13.601-6.569 3.823 1.76 5.597 5.056 4.643 8.67l4.768 2.195c2.188-6.385-1.63-12.29-7.463-14.975-8.671-3.99-16.788.333-20.551 8.473-3.981 8.61-1.291 16.954 6.592 20.582 3.744 1.723 7.045 1.716 10.603.016l-.796 3.686 3.153 1.451 6.926-14.98zm22.077-1.603l-4.383-3.262-18.478 24.712 4.384 3.263 18.477-24.713zm25.506 22.403L298.33 42.255l-3.118 3.492 7.357 6.538-17.435 19.531 4.052 3.6 17.435-19.531 7.357 6.537 3.118-3.492zm11.351 15.12l-3.576-4.52-31.687 9.78 3.469 4.384 8.321-2.69 7.583 9.585-4.611 7.382 3.603 4.555 16.898-28.475zm-13.575 12.896l-5.835-7.376 13.206-4.275-7.371 11.65zm12.762 36.857l-7.588-13.726 22.956-12.63-2.641-4.779-27.06 14.89 10.228 18.504 4.105-2.259zm17.505 16.291l-4.371-11.914-4.32 1.577 4.37 11.915 4.321-1.578zm15.046 27.769c-1.1-9.376-8.806-13.969-17.816-12.916-9.569 1.118-15.382 7.813-14.353 16.587 1.025 8.73 8.236 13.948 17.806 12.83 9.527-1.113 15.378-7.856 14.363-16.501zm-4.536.443c.666 5.677-3.393 9.813-10.42 10.634-7.027.821-12.02-2.258-12.676-7.849-.676-5.763 3.383-9.899 10.539-10.735 6.94-.811 11.895 2.316 12.557 7.95zm2.658 43.884l1.881-25.002-4.674-.35-.738 9.802-26.141-1.958-.406 5.398 26.141 1.957-.737 9.802 4.674.351zm-8.497 32.662l6.483-24.224-4.529-1.206-2.542 9.497-25.328-6.747-1.399 5.229 25.328 6.747-2.542 9.497 4.529 1.207zm-14.426 30.567l9.623-20.032-27.867-13.325-9.736 20.267 4.188 2.002 7.41-15.424 8.219 3.93-6.772 14.097 3.953 1.89 6.772-14.097 7.397 3.537-7.297 15.19 4.11 1.965zm-21.78 29.675l15.007-19.948-24.715-18.507-3.257 4.329 20.967 15.7-8.494 11.29-20.966-15.7-3.257 4.329 24.715 18.507zm-25.755 23.296l16.592-14.813-20.607-22.975-16.786 14.987 3.097 3.452 12.775-11.406 6.078 6.777-11.676 10.424 2.924 3.259 11.675-10.424 5.471 6.098-12.582 11.233 3.039 3.388zm-46.547-7.792l15.849 26.468 17.326-10.327-8.672-15.663c-3.805-6.862-3.019-8.843-1.119-9.976.372-.222 1.311-.68 2.004-.791l-2.137-3.568c-.804.176-2.041.56-3.084 1.182-3.801 2.265-5.06 7.001-.929 14.576l7.062 12.891-8.198 4.885-13.444-22.453-4.658 2.776zm-25.055 18.634c2.035 5.712 6.742 7.674 13.121 5.411l7.77-2.756 3.955 11.098 5.112-1.813-10.351-29.05-12.882 4.569c-6.339 2.248-8.775 6.788-6.725 12.541zm5.068-1.935c-1.119-3.142-.009-5.328 3.344-6.517l7.566-2.683 3.431 9.629-7.484 2.654c-3.19 1.131-5.766-.023-6.857-3.083z" fill="#EC3F2E"/></svg>