<svg width="178" height="178" fill="none" xmlns="http://www.w3.org/2000/svg"><path d="M74.95 175.131c.921.141 1.686-.105 2.295-.738.608-.627 1.005-1.573 1.19-2.837.384-2.631-.39-4.093-2.32-4.388-.81-.124-1.822-.067-3.034.171l.306-2.098c1.006-.259 2.093-.299 3.261-.12 1.679.256 2.886.972 3.624 2.146.736 1.179.962 2.742.678 4.69-.18 1.226-.555 2.266-1.126 3.119-.572.858-1.302 1.47-2.189 1.835-.893.369-1.89.47-2.989.302-1.12-.171-2.206-.621-3.256-1.347l1.087-1.913c.4.276.808.525 1.221.748.414.222.832.366 1.253.43zm-6.869-12.047l2.383.679-2.58 9.462 3.051.869-.552 2.028-8.486-2.419.553-2.027 3.051.869 2.58-9.461zm-11.388-4.581l-.31 2.951 3.912 1.704 1.867-2.272 2.452 1.068-8.38 9.367-2.782-1.212.79-12.674 2.451 1.068zm-.58 5.139c-.267 2.68-.42 4.195-.455 4.546-.042.349-.08.621-.116.819.428-.571 1.55-1.953 3.367-4.147l-2.796-1.218zm-5.96-9.047l2.13 1.287-4.888 8.456 2.727 1.648-1.047 1.812-7.584-4.582 1.047-1.812 2.727 1.648 4.888-8.457zm-12.935-5.184c1.5-1.956 3.514-1.921 6.043.105l2.675 2.144-7.196 9.388-1.947-1.56 2.761-3.602-.766-.614c-1.197-.96-1.932-1.95-2.205-2.969-.272-1.02-.06-1.984.635-2.892zm5.521 2.32l-.653-.523c-.657-.527-1.221-.806-1.69-.837-.474-.026-.878.179-1.212.615-.332.433-.415.867-.25 1.304.163.441.62.963 1.375 1.567l.496.398 1.934-2.524zm-14.412-18.182l1.575 1.939-7.392 6.274 2.742 3.377 7.392-6.274 1.58 1.946-8.977 7.618-5.896-7.263 8.976-7.617zm-4.44-7.661l-1.916 2.23 2.239 3.697 2.806-.759 1.403 2.316-12.127 2.726-1.592-2.629 7.784-9.898 1.403 2.317zm-3.37 3.86a2745.093 2745.093 0 01-2.931 3.449c-.23.26-.416.461-.556.601.671-.214 2.367-.683 5.088-1.408l-1.6-2.642zm-4.575-6.425l-.332-.76c-.31-.71-.678-1.179-1.103-1.408-.431-.226-.909-.22-1.434.02-.53.241-.855.569-.978.982-.125.408-.05.928.226 1.559l.459 1.05 3.162-1.443zm-3.966-4.444c1.146-.523 2.183-.555 3.111-.097.926.453 1.684 1.355 2.273 2.706l.433.991 3.79-1.729 1.007 2.31-10.653 4.86-1.519-3.479c-.576-1.321-.735-2.452-.475-3.392.252-.943.93-1.667 2.033-2.17zm5.512-9.901l.704 2.425-9.21 2.796.902 3.105-1.973.599-2.508-8.633 1.973-.6.902 3.105 9.21-2.797zm-2.612-14.72l.379 2.491-4.976.79.71 4.667 4.974-.789.38 2.499-11.528 1.83-.38-2.499 4.519-.718-.71-4.667-4.517.717-.378-2.491 11.527-1.83zm.074-8.162l.13 6.868-11.665.23-.13-6.867 2.027-.04.082 4.339 2.56-.05-.075-4.038 2.026-.04.076 4.037 3.008-.06-.082-4.339 2.042-.04zm-13.79 6.49c-.345.007-.613-.088-.803-.286-.19-.203-.289-.478-.295-.826-.007-.359.086-.641.28-.846.192-.21.45-.32.775-.326.32-.006.58.092.78.295.195.203.296.481.303.835.006.348-.081.627-.264.837-.182.205-.44.31-.776.317zM1.1 89.3c-.372.008-.645-.096-.82-.31-.18-.22-.272-.492-.279-.819-.006-.353.084-.635.272-.845.187-.216.448-.328.783-.334.325-.007.585.094.78.303.196.208.297.486.303.834.007.326-.073.603-.24.83-.17.22-.437.334-.799.341zm8.257-9.364l.09-.827c.085-.773 0-1.368-.254-1.786-.259-.418-.674-.66-1.245-.725-.576-.066-1.02.047-1.33.34-.31.287-.502.774-.578 1.46l-.125 1.144 3.442.394zM8.139 74.05c1.248.143 2.158.652 2.731 1.528.574.87.78 2.04.619 3.51l-.118 1.079 4.123.472-.275 2.514-11.594-1.329.415-3.786c.158-1.438.582-2.495 1.271-3.17.685-.683 1.628-.956 2.828-.818zm5.474-13.154c1.873.482 3.195 1.326 3.968 2.534.772 1.208.94 2.699.505 4.47-.436 1.773-1.274 3.005-2.513 3.695-1.24.691-2.8.795-4.684.31-1.883-.483-3.203-1.327-3.96-2.531-.761-1.211-.923-2.705-.486-4.483.437-1.777 1.272-3.007 2.503-3.689 1.233-.686 2.789-.788 4.667-.306zm-2.076 8.442c1.264.325 2.276.325 3.036-.001.76-.327 1.26-.978 1.5-1.953.482-1.957-.55-3.263-3.093-3.916-2.548-.656-4.062-.01-4.54 1.936-.24.976-.099 1.795.424 2.457.518.66 1.409 1.152 2.673 1.477zm9.824-11.088l-9.527-.96-.028.067c1.757.639 2.922 1.081 3.496 1.327l5.006 2.14-.852 2.084-10.763-4.6 1.299-3.176 9.295.913.018-.045-7.1-6.28 1.298-3.177 10.763 4.6-.89 2.176-5.094-2.178c-.24-.102-.516-.223-.828-.363-.31-.144-1.13-.536-2.46-1.175l-.028.068 7.27 6.44-.875 2.138zm1.213-21.804c-.535.778-.663 1.587-.382 2.428.276.836.925 1.623 1.948 2.358 2.128 1.53 3.753 1.479 4.876-.154.472-.685.875-1.635 1.21-2.85l1.697 1.22c-.225 1.035-.677 2.047-1.356 3.034-.976 1.42-2.143 2.203-3.5 2.351-1.361.145-2.83-.35-4.404-1.482-.992-.713-1.734-1.522-2.224-2.426-.494-.908-.702-1.849-.624-2.823.077-.982.436-1.938 1.075-2.867.652-.948 1.531-1.739 2.637-2.373l1.186 1.85c-.42.243-.82.503-1.201.782a3.99 3.99 0 00-.938.952zm13.613-.882l-1.661 1.874-7.118-6.598-2.128 2.4-1.525-1.414 5.917-6.672 1.525 1.413-2.127 2.4 7.117 6.597zm9.107-8.356l-2.441-1.606-3.244 2.813 1.151 2.724-2.032 1.763-4.437-11.857 2.307-2 10.729 6.4-2.033 1.763zm-4.233-2.833a2296.054 2296.054 0 01-3.772-2.453 13.41 13.41 0 01-.664-.472c.307.647 1.012 2.292 2.117 4.935l2.319-2.01zm10.581-1.394l-2.08 1.37-5.203-8.256-2.663 1.754-1.115-1.77 7.404-4.878 1.116 1.77-2.663 1.754 5.204 8.256zM61.97 13.48c1.04 2.247.106 4.072-2.799 5.476l-3.073 1.485-4.985-10.784 2.237-1.08 1.912 4.137.88-.425c1.376-.665 2.57-.893 3.585-.685 1.014.208 1.762.833 2.244 1.875zm-4.502 4.007l.75-.363c.756-.365 1.252-.755 1.49-1.17.235-.421.236-.882.005-1.384-.23-.496-.573-.767-1.029-.811-.458-.05-1.12.135-1.986.553l-.57.276 1.34 2.899zm22.357-5.027l-2.402.57-2.174-9.567-4.181.993 2.174 9.567-2.41.573-2.64-11.618L77.185.842l2.64 11.618zm8.687-.627l-1.091-2.75-4.236.39-.593 2.905-2.655.245L82.987.317 86 .04l5.167 11.549-2.655.244zm-1.865-4.808c-1.005-2.49-1.572-3.9-1.702-4.226a13.91 13.91 0 01-.277-.777c-.114.71-.464 2.47-1.05 5.281l3.029-.278zm7.668-1.305l.813.038c.76.035 1.335-.091 1.726-.378.39-.292.599-.732.625-1.319.026-.592-.114-1.037-.42-1.334-.302-.297-.79-.46-1.465-.492l-1.124-.051-.155 3.537zm5.663-1.634c-.057 1.282-.493 2.245-1.31 2.888-.81.643-1.939.932-3.384.865l-1.06-.048-.187 4.238-2.47-.114L92.09 0l3.722.171c1.414.065 2.474.427 3.18 1.085.711.653 1.04 1.597.986 2.83zm6.187 9.475l-2.435-.442 1.681-9.671-3.119-.567.36-2.072 8.673 1.576-.36 2.072-3.119-.567-1.681 9.671zm14.043 4.209L117.86 17l1.539-4.902-4.4-1.443-1.538 4.902-2.355-.773 3.564-11.357 2.356.773-1.397 4.45 4.399 1.444 1.397-4.45 2.347.77-3.564 11.356zm7.104 3.723l-6.064-2.958 5.025-10.764 6.063 2.958-.873 1.87-3.831-1.87-1.103 2.364 3.565 1.74-.873 1.87-3.565-1.74-1.295 2.776 3.831 1.87-.88 1.884zm.502-15.51c.149-.32.353-.521.61-.607.263-.082.548-.049.855.101.317.155.522.366.615.634.098.271.076.556-.063.856-.138.294-.34.488-.607.58-.265.088-.554.056-.866-.097-.307-.15-.512-.355-.614-.616-.097-.258-.074-.542.07-.851zm2.903 1.416c.16-.344.373-.547.638-.61.273-.067.553-.03.841.111.312.152.518.361.618.627.105.268.085.557-.059.866-.14.3-.345.492-.615.577-.269.086-.558.053-.865-.097a1.28 1.28 0 01-.617-.59c-.117-.256-.097-.55.059-.884zm4.487 11.743l.682.453c.638.424 1.197.613 1.676.568.482-.05.879-.32 1.192-.813.316-.497.415-.953.299-1.368-.113-.412-.452-.806-1.019-1.182l-.943-.627-1.887 2.969zm5.692 1.524c-.684 1.077-1.537 1.68-2.56 1.812-1.018.134-2.133-.201-3.347-1.007l-.889-.591-2.261 3.557-2.074-1.378 6.356-10.002 3.124 2.076c1.187.788 1.921 1.65 2.204 2.583.289.931.105 1.915-.553 2.95zm9.05 10.897c-1.26 1.496-2.592 2.326-3.994 2.491-1.402.165-2.781-.349-4.135-1.541-1.355-1.193-2.056-2.51-2.105-3.952-.049-1.443.56-2.916 1.827-4.42 1.267-1.505 2.597-2.333 3.989-2.486 1.399-.153 2.778.368 4.137 1.564 1.358 1.196 2.059 2.51 2.104 3.941.048 1.435-.56 2.902-1.823 4.403zm-6.452-5.68c-.851 1.01-1.304 1.935-1.359 2.776-.056.841.29 1.59 1.035 2.247 1.496 1.316 3.099.958 4.81-1.073 1.715-2.036 1.829-3.71.341-5.019-.745-.656-1.525-.894-2.338-.712-.809.177-1.639.771-2.489 1.78zm5.295 13.947l5.108-8.278-.047-.056c-1.346 1.32-2.255 2.187-2.726 2.602l-4.114 3.617-1.442-1.713 8.845-7.777 2.196 2.61-4.964 8.087.032.037 8.673-3.677 2.195 2.61-8.845 7.778-1.503-1.788 4.186-3.681c.198-.174.428-.372.689-.595.265-.219.975-.793 2.13-1.722l-.047-.056-8.889 3.76-1.477-1.758zm18.522 10.879c-.441-.838-1.091-1.318-1.952-1.438-.855-.122-1.834.12-2.935.724-2.291 1.26-2.974 2.768-2.05 4.527.388.737 1.038 1.532 1.951 2.382l-1.828 1.005c-.805-.67-1.487-1.536-2.046-2.6-.803-1.527-.966-2.945-.487-4.251.483-1.31 1.573-2.43 3.269-3.362 1.069-.588 2.108-.903 3.118-.945 1.015-.046 1.931.186 2.748.694.824.51 1.499 1.266 2.025 2.267.537 1.02.835 2.178.893 3.474l-2.148.255a13.899 13.899 0 00-.146-1.449 4.06 4.06 0 00-.412-1.283zm-5.328 12.838l-.894-2.359 8.957-3.55-1.144-3.02 1.919-.76 3.184 8.398-1.92.76-1.145-3.02-8.957 3.55zm3.226 12.068l2.498-1.512-1.006-4.225-2.898-.169-.631-2.647 12.355 1.257.716 3.004-10.404 6.94-.63-2.648zm4.374-2.6c2.26-1.386 3.538-2.169 3.834-2.349.298-.175.535-.306.711-.395-.703-.01-2.458-.102-5.264-.277l.719 3.02zm-3.522 10.295l-.266-2.514 9.551-1.058-.341-3.22 2.047-.226.948 8.954-2.047.227-.341-3.22-9.551 1.057zm3.68 13.698c-2.43-.057-3.608-1.728-3.534-5.012l.078-3.474 11.663.275-.057 2.528-4.475-.106-.023.996c-.035 1.555-.37 2.749-1.006 3.583-.636.833-1.518 1.237-2.646 1.21zm-1.486-5.91l-.02.848c-.019.854.1 1.482.357 1.885.262.403.665.612 1.207.624.537.013.927-.179 1.17-.576.249-.397.384-1.084.406-2.063l.015-.644-3.135-.074zm-5.622 22.686l.578-2.451 9.34 2.3 1.005-4.267-9.34-2.3.579-2.459 11.342 2.793-2.162 9.177-11.342-2.793zm-3.344 8.222l2.893.235 1.557-4.047-2.274-1.844.975-2.535 9.394 8.301-1.107 2.877-12.414-.451.976-2.536zm5.04.449c2.628.198 4.114.311 4.458.338.342.032.609.064.803.095-.569-.422-1.952-1.53-4.148-3.325l-1.113 2.892zm-2.295 7.593l-.397.727c-.371.679-.518 1.261-.442 1.747.08.488.371.876.873 1.162.506.289.958.36 1.355.213.394-.142.756-.515 1.086-1.118l.549-1.004-3.024-1.727zm-1.108 5.909c-1.096-.626-1.742-1.456-1.939-2.49-.199-1.03.055-2.191.76-3.482l.518-.947-3.622-2.069 1.206-2.208 10.184 5.817-1.817 3.326c-.69 1.263-1.481 2.07-2.373 2.42-.89.357-1.863.235-2.917-.367zm-11.057 1.41l1.478-2.027 7.703 5.869 1.893-2.597 1.651 1.258-5.264 7.221-1.651-1.257 1.893-2.597-7.703-5.87zm-9.972 10.951l1.725-1.801 3.597 3.602 3.233-3.374-3.596-3.602 1.731-1.807 8.333 8.347-1.731 1.806-3.266-3.271-3.233 3.374 3.266 3.272-1.726 1.8-8.333-8.346zm-6.439 4.824l5.303-4.217 7.162 9.416-5.304 4.217-1.244-1.636 3.351-2.665-1.572-2.067-3.118 2.479-1.245-1.635 3.118-2.48-1.846-2.427-3.351 2.664-1.254-1.649zm13.337 7.409c.213.279.298.555.257.829-.045.277-.202.523-.471.737-.277.22-.554.312-.83.277-.28-.032-.52-.179-.719-.441-.196-.257-.275-.529-.236-.815.042-.281.199-.53.472-.747.269-.214.54-.309.814-.286.27.027.508.175.713.446zm-2.538 2.018c.229.301.311.587.248.857a1.276 1.276 0 01-.475.719c-.273.217-.548.312-.825.284-.281-.025-.525-.172-.731-.442-.199-.262-.275-.536-.229-.82.046-.285.204-.534.472-.748.252-.2.517-.3.793-.3.276.008.525.158.747.45zm-12.279-1.16l-.702.421c-.656.393-1.072.819-1.247 1.277-.173.463-.114.947.176 1.454.294.512.648.807 1.063.886.411.082.907-.052 1.49-.401l.971-.582-1.751-3.055zm-3.883 4.52c-.635-1.107-.781-2.157-.437-3.151.338-.991 1.132-1.86 2.38-2.608l.916-.548-2.098-3.661 2.134-1.278 5.898 10.291-3.215 1.926c-1.221.731-2.303 1.017-3.246.856-.944-.152-1.722-.761-2.332-1.827zm-13.583 3.39c-.743-1.822-.873-3.411-.389-4.766.484-1.356 1.551-2.386 3.201-3.09 1.649-.704 3.115-.755 4.399-.153 1.283.602 2.298 1.819 3.046 3.651.748 1.832.876 3.418.386 4.759-.493 1.348-1.567 2.375-3.221 3.081-1.655.705-3.118.758-4.389.157-1.276-.599-2.287-1.812-3.033-3.639zm7.858-3.352c-.502-1.23-1.109-2.058-1.819-2.486-.711-.428-1.52-.448-2.429-.06-1.821.777-2.227 2.403-1.217 4.877 1.013 2.48 2.424 3.333 4.236 2.56.908-.387 1.465-.993 1.67-1.818.208-.819.06-1.843-.441-3.073zm-14.57-1.409l4.95 8.378.07-.018c-.551-1.821-.902-3.041-1.053-3.658l-1.32-5.381 2.144-.549 2.837 11.569-3.266.837-4.848-8.16-.046.012-.671 9.575-3.266.837-2.837-11.569 2.236-.574 1.343 5.476c.064.259.134.558.212.897.072.34.256 1.246.551 2.718l.07-.018.696-9.809 2.198-.563z" fill="#fff"/><circle cx="89.001" cy="89" r="69.8" stroke="#fff" stroke-width="2.4"/></svg>