<svg width="178" height="178" viewBox="0 0 178 178" fill="none" xmlns="http://www.w3.org/2000/svg">
<path d="M74.9507 175.131C75.8714 175.272 76.6362 175.026 77.2451 174.393C77.8532 173.766 78.2496 172.82 78.4345 171.556C78.8191 168.925 78.0459 167.463 76.1151 167.168C75.3049 167.044 74.2934 167.101 73.0807 167.339L73.3874 165.241C74.3934 164.982 75.4804 164.942 76.6483 165.121C78.3266 165.377 79.5345 166.093 80.2718 167.267C81.0083 168.446 81.2343 170.009 80.9496 171.957C80.7702 173.183 80.395 174.223 79.8238 175.076C79.2519 175.934 78.5224 176.546 77.6353 176.911C76.7422 177.28 75.7459 177.381 74.6463 177.213C73.5257 177.042 72.4403 176.592 71.3902 175.866L72.4766 173.953C72.8774 174.229 73.2847 174.478 73.6985 174.701C74.1124 174.923 74.5298 175.067 74.9507 175.131Z" fill="white"/>
<path d="M68.081 163.084L70.4637 163.763L67.8839 173.225L70.9354 174.094L70.3826 176.122L61.8969 173.703L62.4497 171.676L65.5012 172.545L68.081 163.084Z" fill="white"/>
<path d="M56.6931 158.503L56.3826 161.454L60.2952 163.158L62.1619 160.886L64.6137 161.954L56.234 171.321L53.4518 170.109L54.2413 157.435L56.6931 158.503ZM56.1126 163.642C55.8456 166.322 55.6939 167.837 55.6576 168.188C55.6164 168.537 55.5779 168.809 55.5419 169.007C55.9704 168.436 57.0928 167.054 58.9094 164.86L56.1126 163.642Z" fill="white"/>
<path d="M50.1532 154.595L52.2827 155.882L47.3948 164.338L50.1219 165.986L49.0745 167.798L41.4907 163.216L42.5381 161.404L45.2653 163.052L50.1532 154.595Z" fill="white"/>
<path d="M37.2179 149.411C38.7175 147.455 40.7317 147.49 43.2607 149.516L45.9361 151.66L38.7402 161.048L36.7932 159.488L39.5545 155.886L38.7882 155.272C37.5908 154.312 36.8558 153.322 36.5832 152.303C36.3107 151.283 36.5222 150.319 37.2179 149.411ZM42.739 151.731L42.0858 151.208C41.4285 150.681 40.8649 150.402 40.3952 150.371C39.9222 150.345 39.5184 150.55 39.1837 150.986C38.8523 151.419 38.7693 151.853 38.9347 152.29C39.0969 152.731 39.5548 153.253 40.3085 153.857L40.8046 154.255L42.739 151.731Z" fill="white"/>
<path d="M28.3272 133.549L29.902 135.488L22.5097 141.762L25.2516 145.139L32.6439 138.865L34.2238 140.811L25.2474 148.429L19.3509 141.166L28.3272 133.549Z" fill="white"/>
<path d="M23.8867 125.888L21.971 128.118L24.2098 131.815L27.016 131.056L28.419 133.372L16.2921 136.098L14.7002 133.469L22.4837 123.571L23.8867 125.888ZM20.5179 129.748C18.7902 131.782 17.8128 132.931 17.5855 133.197C17.3555 133.457 17.1703 133.658 17.0299 133.798C17.7012 133.584 19.3974 133.115 22.1183 132.39L20.5179 129.748Z" fill="white"/>
<path d="M15.942 123.323L15.6104 122.563C15.3004 121.853 14.9325 121.384 14.5065 121.155C14.0757 120.929 13.598 120.935 13.0733 121.175C12.5438 121.416 12.2178 121.744 12.0952 122.157C11.9705 122.565 12.0458 123.085 12.321 123.716L12.7795 124.766L15.942 123.323ZM11.9755 118.879C13.122 118.356 14.1592 118.324 15.0873 118.782C16.0132 119.235 16.7709 120.137 17.3605 121.488L17.7929 122.479L21.5821 120.75L22.59 123.06L11.9365 127.92L10.4181 124.441C9.84156 123.12 9.68304 121.989 9.94259 121.049C10.1951 120.106 10.8727 119.382 11.9755 118.879Z" fill="white"/>
<path d="M17.4875 108.978L18.1919 111.403L8.98234 114.199L9.88433 117.304L7.91086 117.903L5.40257 109.27L7.37604 108.67L8.27802 111.775L17.4875 108.978Z" fill="white"/>
<path d="M14.8763 94.2579L15.2546 96.749L10.2792 97.5388L10.9881 102.206L15.9634 101.417L16.343 103.916L4.8152 105.746L4.43569 103.247L8.95375 102.529L8.24492 97.8617L3.72685 98.5789L3.34856 96.0879L14.8763 94.2579Z" fill="white"/>
<path d="M14.9492 86.096L15.0791 92.9639L3.41544 93.1946L3.28551 86.3267L5.3119 86.2866L5.39399 90.626L7.9549 90.5753L7.87852 86.5378L9.90491 86.4977L9.98129 90.5352L12.989 90.4758L12.9069 86.1364L14.9492 86.096ZM1.16131 92.5864C0.815598 92.5932 0.547764 92.4979 0.357807 92.3004C0.167747 92.0974 0.0694246 91.8219 0.0628407 91.4739C0.0560511 91.115 0.149147 90.833 0.342129 90.6279C0.535008 90.4174 0.793665 90.3089 1.1181 90.3025C1.43722 90.2962 1.69712 90.3944 1.89782 90.5972C2.0932 90.8 2.19423 91.0782 2.20092 91.4316C2.2075 91.7796 2.11967 92.0588 1.93743 92.2691C1.75509 92.474 1.49638 92.5798 1.16131 92.5864ZM1.09912 89.2993C0.726818 89.3066 0.453512 89.2032 0.279201 88.9891C0.0994697 88.7696 0.00651767 88.4967 0.000345277 88.1705C-0.00634148 87.817 0.0840954 87.5351 0.271656 87.3246C0.459114 87.1088 0.720378 86.9975 1.05545 86.9909C1.37989 86.9845 1.63984 87.0854 1.83533 87.2937C2.03081 87.502 2.13184 87.7802 2.13842 88.1282C2.1446 88.4544 2.06469 88.7307 1.89872 88.9571C1.72732 89.178 1.46079 89.2921 1.09912 89.2993Z" fill="white"/>
<path d="M9.35656 79.936L9.44722 79.1091C9.53195 78.3362 9.44732 77.7409 9.19335 77.3232C8.93408 76.9049 8.51898 76.6631 7.94804 76.5976C7.37181 76.5316 6.92847 76.645 6.61802 76.9378C6.30817 77.2252 6.11562 77.7121 6.04037 78.3985L5.91505 79.5417L9.35656 79.936ZM8.13899 74.05C9.3866 74.193 10.297 74.7023 10.8701 75.5779C11.4438 76.4482 11.6501 77.6184 11.4889 79.0885L11.3707 80.1668L15.4942 80.6393L15.2187 83.1526L3.62539 81.8242L4.04043 78.038C4.19804 76.6003 4.6217 75.5433 5.31141 74.8671C5.99643 74.1849 6.93896 73.9125 8.13899 74.05Z" fill="white"/>
<path d="M13.6128 60.8962C15.4855 61.3776 16.8082 62.2223 17.5807 63.4303C18.3533 64.6384 18.5216 66.1285 18.0858 67.9008C17.65 69.6731 16.8124 70.9046 15.5729 71.5955C14.3334 72.2863 12.7721 72.3897 10.8891 71.9057C9.00604 71.4217 7.68598 70.5776 6.92891 69.3736C6.16798 68.1629 6.00607 66.6688 6.44317 64.8913C6.88027 63.1137 7.71469 61.8841 8.94642 61.2025C10.1794 60.5156 11.7349 60.4135 13.6128 60.8962ZM11.5369 69.3383C12.8008 69.6632 13.813 69.6626 14.5734 69.3365C15.3337 69.0104 15.8339 68.3594 16.0738 67.3836C16.555 65.4267 15.5239 64.1214 12.9805 63.4676C10.4319 62.8125 8.91833 63.4581 8.43972 65.4045C8.19977 66.3803 8.34127 67.199 8.86423 67.8606C9.38203 68.5208 10.2729 69.0134 11.5369 69.3383Z" fill="white"/>
<path d="M21.361 58.2491L11.8335 57.2894L11.8058 57.3572C13.5626 57.996 14.7281 58.4382 15.3023 58.6836L20.3085 60.8233L19.456 62.9083L8.69274 58.3079L9.99151 55.1316L19.2871 56.0452L19.3055 56L12.2043 49.7197L13.5031 46.5433L24.2663 51.1437L23.3769 53.319L18.2824 51.1415C18.0419 51.0387 17.7656 50.9177 17.4536 50.7784C17.1436 50.6341 16.3236 50.2424 14.9936 49.6032L14.9659 49.6709L22.2351 56.1114L21.361 58.2491Z" fill="white"/>
<path d="M22.5744 36.4456C22.0388 37.2241 21.9113 38.0334 22.1919 38.8735C22.4681 39.7104 23.1174 40.4966 24.14 41.2319C26.2677 42.7619 27.8931 42.7106 29.0162 41.078C29.4875 40.3929 29.8908 39.4428 30.226 38.2276L31.9229 39.4479C31.6984 40.4833 31.2464 41.4948 30.567 42.4824C29.5907 43.9015 28.4241 44.685 27.0672 44.833C25.7058 44.9778 24.2376 44.4838 22.6625 43.3511C21.6705 42.6377 20.9294 41.8289 20.4394 40.9246C19.945 40.0172 19.737 39.0764 19.8154 38.1021C19.8925 37.1202 20.2509 36.1644 20.8905 35.2347C21.5424 34.2871 22.4214 33.4963 23.5275 32.8621L24.7132 34.7121C24.2926 34.9549 23.8921 35.2155 23.5119 35.494C23.1318 35.7725 22.8192 36.0897 22.5744 36.4456Z" fill="white"/>
<path d="M36.1872 35.564L34.5258 37.4377L27.4082 30.8404L25.2805 33.2399L23.7553 31.8262L29.6721 25.1535L31.1973 26.5672L29.0696 28.9667L36.1872 35.564Z" fill="white"/>
<path d="M45.2941 27.2079L42.8529 25.602L39.6094 28.4146L40.7604 31.1391L38.7279 32.9016L34.2913 21.0451L36.5977 19.0452L47.3266 25.4454L45.2941 27.2079ZM41.0607 24.3749C38.8368 22.93 37.5797 22.1125 37.2893 21.9221C37.0029 21.7283 36.7816 21.5708 36.6252 21.4496C36.9318 22.0966 37.6374 23.7419 38.7421 26.3853L41.0607 24.3749Z" fill="white"/>
<path d="M51.6419 22.981L49.5627 24.351L44.3585 16.0945L41.6957 17.8489L40.5806 16.0796L47.9854 11.2008L49.1006 12.9701L46.4378 14.7245L51.6419 22.981Z" fill="white"/>
<path d="M61.9706 13.4794C63.0093 15.7266 62.0762 17.552 59.1713 18.9557L56.098 20.4407L51.1133 9.65708L53.3497 8.57644L55.2624 12.7143L56.1426 12.289C57.5181 11.6244 58.7128 11.396 59.7268 11.6039C60.7408 11.8117 61.4887 12.4369 61.9706 13.4794ZM57.4684 17.4866L58.2187 17.124C58.9738 16.7592 59.4701 16.369 59.7075 15.9535C59.9427 15.533 59.9443 15.072 59.7125 14.5705C59.4829 14.0738 59.1402 13.8033 58.6842 13.7589C58.2261 13.7096 57.5641 13.8941 56.6984 14.3124L56.1285 14.5878L57.4684 17.4866Z" fill="white"/>
<path d="M79.8248 12.4599L77.4231 13.0303L75.2494 3.46254L71.0678 4.4556L73.2415 14.0233L70.832 14.5956L68.1925 2.97758L77.1853 0.841951L79.8248 12.4599Z" fill="white"/>
<path d="M88.5123 11.8331L87.4209 9.08306L83.185 9.47299L82.5916 12.3782L79.9373 12.6225L82.9876 0.317033L85.9996 0.0397616L91.1667 11.5888L88.5123 11.8331ZM86.6468 7.02461C85.6423 4.53412 85.075 3.12559 84.9447 2.79901C84.8198 2.47194 84.7275 2.21285 84.668 2.02175C84.5542 2.7312 84.2045 4.49174 83.6189 7.30335L86.6468 7.02461Z" fill="white"/>
<path d="M94.3147 5.72069L95.1277 5.75804C95.8877 5.79294 96.463 5.66693 96.8536 5.38C97.2446 5.08763 97.4529 4.64805 97.4787 4.06125C97.5047 3.46902 97.3645 3.02431 97.0581 2.72714C96.757 2.4302 96.2689 2.26623 95.594 2.23523L94.4701 2.1836L94.3147 5.72069ZM99.9777 4.08621C99.9213 5.36847 99.485 6.33112 98.6686 6.97416C97.8576 7.61744 96.7293 7.90588 95.2839 7.83948L94.2237 7.79078L94.0374 12.0288L91.5663 11.9153L92.0899 0L95.8125 0.170998C97.2261 0.235931 98.2859 0.597656 98.9918 1.25617C99.7032 1.9095 100.032 2.85285 99.9777 4.08621Z" fill="white"/>
<path d="M106.165 13.5613L103.73 13.1189L105.411 3.44788L102.292 2.88126L102.652 0.808912L111.325 2.38458L110.965 4.45694L107.846 3.89032L106.165 13.5613Z" fill="white"/>
<path d="M120.208 17.7702L117.86 16.9999L119.399 12.0983L114.999 10.6549L113.461 15.5565L111.106 14.7837L114.67 3.42689L117.026 4.19971L115.629 8.65075L120.028 10.0942L121.425 5.64313L123.772 6.41345L120.208 17.7702Z" fill="white"/>
<path d="M127.312 21.4934L121.248 18.5351L126.273 7.7706L132.336 10.729L131.463 12.5991L127.632 10.7299L126.529 13.0934L130.094 14.8326L129.221 16.7028L125.656 14.9636L124.361 17.7394L128.192 19.6085L127.312 21.4934ZM127.814 5.98272C127.963 5.66366 128.167 5.46157 128.424 5.37644C128.687 5.29365 128.972 5.32721 129.279 5.47712C129.596 5.63171 129.801 5.84315 129.894 6.11143C129.992 6.38206 129.97 6.66708 129.831 6.9665C129.693 7.26102 129.491 7.45458 129.224 7.54718C128.959 7.63488 128.67 7.60261 128.358 7.45036C128.051 7.30045 127.846 7.09509 127.744 6.83428C127.647 6.57581 127.67 6.29196 127.814 5.98272ZM130.717 7.39867C130.877 7.05507 131.09 6.85158 131.355 6.7882C131.628 6.72225 131.908 6.75955 132.196 6.90009C132.508 7.05234 132.714 7.26132 132.814 7.52704C132.919 7.7951 132.899 8.08375 132.755 8.39299C132.615 8.69241 132.41 8.8848 132.14 8.97016C131.871 9.05551 131.582 9.02324 131.275 8.87333C130.987 8.73279 130.781 8.53596 130.658 8.28285C130.541 8.02718 130.561 7.73245 130.717 7.39867Z" fill="white"/>
<path d="M135.204 19.1419L135.886 19.5953C136.524 20.0191 137.083 20.2084 137.562 20.1634C138.044 20.1139 138.441 19.8428 138.754 19.3502C139.07 18.8531 139.169 18.3971 139.053 17.9822C138.94 17.5702 138.601 17.176 138.034 16.7997L137.091 16.173L135.204 19.1419ZM140.896 20.6662C140.212 21.7426 139.359 22.3465 138.336 22.478C137.318 22.6125 136.203 22.2767 134.989 21.4707L134.1 20.8796L131.839 24.4369L129.765 23.059L136.121 13.0574L139.245 15.1332C140.432 15.9214 141.166 16.7822 141.449 17.7156C141.738 18.6474 141.554 19.631 140.896 20.6662Z" fill="white"/>
<path d="M149.946 31.5626C148.686 33.0587 147.354 33.8892 145.952 34.0541C144.55 34.219 143.171 33.7052 141.817 32.5128C140.462 31.3204 139.761 30.003 139.712 28.5605C139.663 27.118 140.272 25.6446 141.539 24.1403C142.806 22.636 144.136 21.8076 145.528 21.655C146.927 21.5019 148.306 22.0234 149.665 23.2193C151.023 24.4153 151.724 25.7289 151.769 27.1601C151.817 28.5949 151.209 30.0624 149.946 31.5626ZM143.494 25.8827C142.643 26.8925 142.19 27.8179 142.135 28.659C142.079 29.5001 142.425 30.2489 143.17 30.9055C144.666 32.2221 146.269 31.8644 147.98 29.8326C149.695 27.7966 149.809 26.1238 148.321 24.8143C147.576 24.1578 146.796 23.9203 145.983 24.1019C145.174 24.2794 144.344 24.873 143.494 25.8827Z" fill="white"/>
<path d="M148.789 39.8304L153.897 31.5518L153.85 31.4962C152.504 32.8157 151.595 33.6829 151.124 34.0978L147.01 37.715L145.568 36.0016L154.413 28.2247L156.609 30.835L151.645 38.9222L151.677 38.9593L160.35 35.2824L162.545 37.8927L153.7 45.6696L152.197 43.882L156.383 40.201C156.581 40.0272 156.811 39.8289 157.072 39.6061C157.337 39.3874 158.047 38.8134 159.202 37.8841L159.155 37.8284L150.266 41.5871L148.789 39.8304Z" fill="white"/>
<path d="M167.311 50.7089C166.87 49.8706 166.22 49.3914 165.359 49.2715C164.504 49.1489 163.525 49.3903 162.424 49.9954C160.133 51.2547 159.45 52.7634 160.374 54.5215C160.762 55.2592 161.412 56.0535 162.325 56.9043L160.497 57.9087C159.692 57.2395 159.01 56.3732 158.451 55.3097C157.648 53.7816 157.485 52.3642 157.964 51.0576C158.447 49.7484 159.537 48.6277 161.233 47.6955C162.302 47.1083 163.341 46.7934 164.351 46.7506C165.366 46.7053 166.282 46.9367 167.099 47.4449C167.923 47.9553 168.598 48.7111 169.124 49.7123C169.661 50.7327 169.959 51.8905 170.017 53.1857L167.869 53.4405C167.845 52.9473 167.796 52.4645 167.723 51.9922C167.65 51.5199 167.513 51.0922 167.311 50.7089Z" fill="white"/>
<path d="M161.983 63.5465L161.089 61.1884L170.046 57.6385L168.902 54.6186L170.821 53.8579L174.005 62.2558L172.085 63.0165L170.94 59.9966L161.983 63.5465Z" fill="white"/>
<path d="M165.209 75.6146L167.707 74.1028L166.701 69.8779L163.803 69.7092L163.172 67.0617L175.527 68.3188L176.243 71.323L165.839 78.2621L165.209 75.6146ZM169.583 73.0144C171.843 71.629 173.121 70.8463 173.417 70.6661C173.715 70.4912 173.952 70.3595 174.128 70.2709C173.425 70.2612 171.67 70.169 168.864 69.9944L169.583 73.0144Z" fill="white"/>
<path d="M166.061 83.3103L165.795 80.796L175.346 79.7385L175.005 76.5185L177.052 76.2919L178 85.2462L175.953 85.4728L175.612 82.2528L166.061 83.3103Z" fill="white"/>
<path d="M169.741 97.0082C167.311 96.9509 166.133 95.2801 166.207 91.9959L166.285 88.5215L177.948 88.7968L177.891 91.3251L173.416 91.2195L173.393 92.2145C173.358 93.7696 173.023 94.964 172.387 95.7976C171.751 96.6313 170.869 97.0348 169.741 97.0082ZM168.255 91.0977L168.235 91.9459C168.216 92.7996 168.335 93.428 168.592 93.8312C168.854 94.2345 169.257 94.4426 169.799 94.4554C170.336 94.4681 170.726 94.276 170.969 93.8791C171.218 93.4824 171.353 92.7947 171.375 91.816L171.39 91.1717L168.255 91.0977Z" fill="white"/>
<path d="M162.633 113.784L163.211 111.333L172.551 113.633L173.556 109.366L164.216 107.066L164.795 104.607L176.137 107.4L173.975 116.577L162.633 113.784Z" fill="white"/>
<path d="M159.289 122.006L162.182 122.241L163.739 118.194L161.465 116.35L162.44 113.815L171.834 122.116L170.727 124.993L158.313 124.542L159.289 122.006ZM164.329 122.455C166.957 122.653 168.443 122.766 168.787 122.793C169.129 122.825 169.396 122.857 169.59 122.888C169.021 122.466 167.638 121.358 165.442 119.563L164.329 122.455Z" fill="white"/>
<path d="M162.034 130.048L161.637 130.775C161.266 131.454 161.119 132.036 161.195 132.522C161.275 133.01 161.566 133.398 162.068 133.684C162.574 133.973 163.026 134.044 163.423 133.897C163.817 133.755 164.179 133.382 164.509 132.779L165.058 131.775L162.034 130.048ZM160.926 135.957C159.83 135.331 159.184 134.501 158.987 133.467C158.788 132.437 159.042 131.276 159.747 129.985L160.265 129.038L156.643 126.969L157.849 124.761L168.033 130.578L166.216 133.904C165.526 135.167 164.735 135.974 163.843 136.324C162.953 136.681 161.98 136.559 160.926 135.957Z" fill="white"/>
<path d="M149.869 137.367L151.347 135.34L159.05 141.209L160.943 138.612L162.594 139.87L157.33 147.091L155.679 145.834L157.572 143.237L149.869 137.367Z" fill="white"/>
<path d="M139.897 148.318L141.622 146.517L145.219 150.119L148.452 146.745L144.856 143.143L146.587 141.336L154.92 149.683L153.189 151.489L149.923 148.218L146.69 151.592L149.956 154.864L148.23 156.664L139.897 148.318Z" fill="white"/>
<path d="M133.458 153.142L138.761 148.925L145.923 158.341L140.619 162.558L139.375 160.922L142.726 158.257L141.154 156.19L138.036 158.669L136.791 157.034L139.909 154.554L138.063 152.127L134.712 154.791L133.458 153.142ZM146.795 160.551C147.008 160.83 147.093 161.106 147.052 161.38C147.007 161.657 146.85 161.903 146.581 162.117C146.304 162.337 146.027 162.429 145.751 162.394C145.471 162.362 145.231 162.215 145.032 161.953C144.836 161.696 144.757 161.424 144.796 161.138C144.838 160.857 144.995 160.608 145.268 160.391C145.537 160.177 145.808 160.082 146.082 160.105C146.352 160.132 146.59 160.28 146.795 160.551ZM144.257 162.569C144.486 162.87 144.568 163.156 144.505 163.426C144.44 163.705 144.282 163.945 144.03 164.145C143.757 164.362 143.482 164.457 143.205 164.429C142.924 164.404 142.68 164.257 142.474 163.987C142.275 163.725 142.199 163.451 142.245 163.167C142.291 162.882 142.449 162.633 142.717 162.419C142.969 162.219 143.234 162.119 143.51 162.119C143.786 162.127 144.035 162.277 144.257 162.569Z" fill="white"/>
<path d="M131.978 161.409L131.276 161.83C130.62 162.223 130.204 162.649 130.029 163.107C129.856 163.57 129.915 164.054 130.205 164.561C130.499 165.073 130.853 165.368 131.268 165.447C131.679 165.529 132.175 165.395 132.758 165.046L133.729 164.464L131.978 161.409ZM128.095 165.929C127.46 164.822 127.314 163.772 127.658 162.778C127.996 161.787 128.79 160.918 130.038 160.17L130.954 159.622L128.856 155.961L130.99 154.683L136.888 164.974L133.673 166.9C132.452 167.631 131.37 167.917 130.427 167.756C129.483 167.604 128.705 166.995 128.095 165.929Z" fill="white"/>
<path d="M114.512 169.319C113.769 167.497 113.639 165.908 114.123 164.553C114.607 163.197 115.674 162.167 117.324 161.463C118.973 160.759 120.439 160.708 121.723 161.31C123.006 161.912 124.021 163.129 124.769 164.961C125.517 166.793 125.645 168.379 125.155 169.72C124.662 171.068 123.588 172.095 121.934 172.801C120.279 173.506 118.816 173.559 117.545 172.958C116.269 172.359 115.258 171.146 114.512 169.319ZM122.37 165.967C121.868 164.737 121.261 163.909 120.551 163.481C119.84 163.053 119.031 163.033 118.122 163.421C116.301 164.198 115.895 165.824 116.905 168.298C117.918 170.778 119.329 171.631 121.141 170.858C122.049 170.471 122.606 169.865 122.811 169.04C123.019 168.221 122.871 167.197 122.37 165.967Z" fill="white"/>
<path d="M107.8 164.558L112.75 172.936L112.82 172.918C112.269 171.097 111.918 169.877 111.767 169.26L110.447 163.879L112.591 163.33L115.428 174.899L112.162 175.736L107.314 167.576L107.268 167.588L106.597 177.163L103.331 178L100.494 166.431L102.73 165.857L104.073 171.333C104.137 171.592 104.207 171.891 104.285 172.23C104.357 172.57 104.541 173.476 104.836 174.948L104.906 174.93L105.602 165.121L107.8 164.558Z" fill="white"/>
<circle cx="89.001" cy="89" r="69.8" stroke="white" stroke-width="2.4"/>
</svg>
