<svg width="178" height="178" viewBox="0 0 178 178" fill="none" xmlns="http://www.w3.org/2000/svg">
<path d="M154.03 89.2529C154.03 125.036 124.991 154.046 89.1672 154.046C53.3436 154.046 24.3047 125.036 24.3047 89.2529C24.3047 53.4697 53.3436 24.46 89.1672 24.46C124.991 24.46 154.03 53.4697 154.03 89.2529Z" stroke="#EC3F2E" stroke-width="2"/>
<path d="M65.7076 159.908L69.2257 160.616L73.0419 169.138L74.5228 161.683L77.6211 162.306L74.6993 177.015L71.601 176.392L73.0159 169.268L66.3638 175.337L63.0656 174.674L69.7957 168.683L65.7076 159.908Z" fill="#EC3F2E"/>
<path d="M48.8074 168.95L56.8766 160.693C57.8859 159.66 58.7296 158.959 59.4076 158.59C60.0833 158.227 60.7957 158.036 61.545 158.016C62.2855 158 63.1224 158.171 64.0557 158.529C64.8557 158.836 65.5622 159.217 66.1753 159.672L65.2093 162.222C64.7251 161.773 64.0734 161.391 63.2544 161.077C62.7401 160.879 62.2763 160.837 61.8629 160.949C61.4495 161.061 61.0099 161.386 60.5441 161.925L61.5499 173.841L58.4262 172.642L57.9479 163.509L57.8527 163.472C57.6218 163.794 57.1893 164.283 56.555 164.94L51.855 170.119L48.8074 168.95Z" fill="#EC3F2E"/>
<path d="M44.2263 148.47L46.9418 150.076L40.7249 160.727L45.4527 163.523L51.6696 152.873L54.3938 154.484L46.8447 167.417L36.6773 161.403L44.2263 148.47Z" fill="#EC3F2E"/>
<path d="M34.097 158.977L31.9373 157.115L36.6185 151.614L37.9027 150.168L39.4057 148.559L39.3592 148.519L26.7742 152.663L23.9023 150.187L33.5963 138.795L35.7328 140.637L31.0781 146.107C30.4548 146.839 29.4845 147.885 28.1671 149.244L28.229 149.297L40.9037 145.095L43.791 147.585L34.097 158.977Z" fill="#EC3F2E"/>
<path d="M30.2785 133.802L32.3033 136.243L22.8823 144.159L25.4753 147.286L23.4565 148.983L16.2458 140.287L18.2646 138.591L20.8575 141.718L30.2785 133.802Z" fill="#EC3F2E"/>
<path d="M17.868 122.662C20.5415 121.072 22.9221 122.055 25.0099 125.612L27.2187 129.375L14.3894 137.005L12.7821 134.267L17.705 131.339L17.0724 130.261C16.0838 128.577 15.6592 127.074 15.7986 125.752C15.938 124.429 16.6278 123.399 17.868 122.662ZM23.3825 127.962L22.8432 127.044C22.3006 126.119 21.7568 125.529 21.212 125.273C20.6613 125.02 20.0876 125.072 19.4909 125.427C18.9 125.778 18.6038 126.248 18.6022 126.837C18.5947 127.429 18.902 128.256 19.5242 129.316L19.9338 130.013L23.3825 127.962Z" fill="#EC3F2E"/>
<path d="M9.00811 110.392L8.68784 109.182C8.1873 107.292 8.18133 105.729 8.66994 104.494C9.15854 103.258 10.0988 102.454 11.4907 102.08C14.4913 101.275 16.5201 102.869 17.5772 106.861L18.6955 111.084L4.29686 114.947L1.87119 105.787L4.39242 105.111L6.00429 111.198L9.00811 110.392ZM15.3801 108.682L15.1071 107.651C14.8324 106.613 14.4669 105.897 14.0109 105.503C13.5483 105.11 12.9821 105.004 12.3124 105.183C11.6493 105.361 11.238 105.734 11.0786 106.3C10.9127 106.869 10.9872 107.748 11.3023 108.937L11.5097 109.72L15.3801 108.682Z" fill="#EC3F2E"/>
<path d="M1.11874 99.9252L0.881742 97.0726L8.05259 96.4689L9.97566 96.3482L12.1679 96.2666L12.1628 96.2053L0.31515 90.253L0 86.4598L14.8495 85.2096L15.084 88.0315L7.95377 88.6318C6.99902 88.7122 5.57871 88.77 3.69286 88.8052L3.69965 88.887L15.6514 94.8614L15.9683 98.6751L1.11874 99.9252Z" fill="#EC3F2E"/>
<path d="M16.5629 73.3337L16.2685 76.4902L4.05048 75.3354L3.70937 78.9924L5.05394 79.2844C8.47158 80.0333 10.862 80.6371 12.2251 81.0957C13.5821 81.5469 14.5162 82.1058 15.0273 82.7724C15.539 83.4322 15.7447 84.3001 15.6444 85.3761C15.591 85.9481 15.4696 86.445 15.2801 86.8668L12.7026 86.6232C12.8747 86.241 12.977 85.8762 13.0094 85.5289C13.043 85.168 12.9074 84.8666 12.6023 84.6248C12.2905 84.3824 11.7001 84.1273 10.831 83.8597C9.95574 83.5846 8.52102 83.1982 6.52681 82.7006C4.52646 82.1955 2.6333 81.7487 0.847309 81.36L1.72677 71.9315L16.5629 73.3337Z" fill="#EC3F2E"/>
<path d="M19.4383 64.1478L17.2274 72.4951L2.829 68.6307L5.03993 60.2834L7.54143 60.9548L6.1445 66.2289L9.30584 67.0773L10.6056 62.1701L13.1071 62.8414L11.8073 67.7487L15.5202 68.7452L16.9171 63.4711L19.4383 64.1478Z" fill="#EC3F2E"/>
<path d="M23.1683 55.7366L21.8874 58.6442L10.6692 53.6366L9.02889 57.3601L6.62499 56.2871L11.1864 45.9324L13.5903 47.0055L11.95 50.729L23.1683 55.7366Z" fill="#EC3F2E"/>
<path d="M37.5411 35.2688L35.2839 38.076L26.0147 37.5197L31.8853 42.3028L29.8975 44.7751L18.3147 35.3379L20.3026 32.8656L25.9117 37.4358L23.6627 28.6867L25.7788 26.055L27.9226 34.837L37.5411 35.2688Z" fill="#EC3F2E"/>
<path d="M37.4367 16.0035L40.9521 27.032C41.3918 28.4115 41.6166 29.4892 41.6265 30.2652C41.632 31.036 41.4694 31.76 41.1388 32.4372C40.8088 33.1047 40.2694 33.7712 39.5207 34.4368C38.879 35.0073 38.2156 35.4601 37.5306 35.7953L35.736 33.7496C36.3563 33.5267 36.9949 33.1232 37.652 32.5391C38.0645 32.1724 38.3175 31.7787 38.4108 31.3581C38.5041 30.9375 38.4221 30.3945 38.1646 29.729L27.2147 25.0906L29.7205 22.863L37.9772 26.6789L38.0536 26.611C37.8781 26.256 37.6487 25.6432 37.3654 24.7726L34.992 18.1768L37.4367 16.0035Z" fill="#EC3F2E"/>
<path d="M57.5817 21.4307L54.9074 23.1052L48.4255 12.6159L43.7693 15.5315L50.2512 26.0208L47.5682 27.7008L39.6974 14.9638L49.7109 8.69368L57.5817 21.4307Z" fill="#EC3F2E"/>
<path d="M53.0439 7.52357L55.6854 6.46335L58.3506 13.1918L59.0262 15.0082L59.7431 17.0952L59.7999 17.0724L62.0003 3.92872L65.5128 2.51891L71.0319 16.4523L68.4188 17.5011L65.7687 10.8108C65.4139 9.91493 64.9447 8.56424 64.3612 6.7587L64.2855 6.7891L62.0944 20.0395L58.563 21.4569L53.0439 7.52357Z" fill="#EC3F2E"/>
<path d="M76.9648 15.8134L73.8761 16.4841L71.2883 4.40886L67.3329 5.26781L66.7784 2.68025L77.7778 0.291646L78.3324 2.87921L74.3769 3.73815L76.9648 15.8134Z" fill="#EC3F2E"/>
<path d="M92.5296 9.92458C92.6866 13.0465 90.7157 14.7119 86.6168 14.9208L82.2803 15.1418L81.5268 0.160833L84.6825 0L84.9716 5.74851L86.2135 5.68521C88.1544 5.58629 89.6741 5.90606 90.7726 6.64453C91.8711 7.383 92.4568 8.47635 92.5296 9.92458ZM85.3051 12.3782L86.3637 12.3243C87.4292 12.27 88.201 12.0594 88.6792 11.6926C89.1571 11.319 89.3785 10.7838 89.3435 10.087C89.3088 9.39701 89.0328 8.91454 88.5154 8.63956C87.9978 8.35775 87.1282 8.24797 85.9067 8.31023L85.1025 8.35122L85.3051 12.3782Z" fill="#EC3F2E"/>
<path d="M107.44 7.7261L108.652 8.00243C110.548 8.43428 111.926 9.15491 112.785 10.1643C113.645 11.1738 113.916 12.3856 113.598 13.7999C112.913 16.8487 110.568 17.9171 106.566 17.0051L102.331 16.0402L105.62 1.4101L114.806 3.50291L114.23 6.06468L108.126 4.674L107.44 7.7261ZM105.984 14.2006L107.018 14.4361C108.058 14.6732 108.858 14.68 109.417 14.4567C109.977 14.2267 110.334 13.7715 110.487 13.091C110.638 12.4172 110.502 11.8777 110.077 11.4724C109.654 11.0604 108.846 10.7186 107.653 10.4468L106.868 10.2679L105.984 14.2006Z" fill="#EC3F2E"/>
<path d="M120.313 5.5557L122.933 6.6695L120.133 13.3423L119.346 15.1126L118.399 17.1048L118.456 17.1287L129.196 9.33223L132.679 10.8133L126.881 24.6314L124.29 23.5296L127.074 16.8946C127.446 16.0062 128.055 14.7132 128.9 13.0158L128.825 12.9838L118.018 20.8629L114.515 19.3738L120.313 5.5557Z" fill="#EC3F2E"/>
<path d="M136.533 31.6734L133.893 29.9447L140.584 19.5896L137.526 17.5868L136.644 18.6498C134.398 21.3485 132.756 23.1989 131.72 24.201C130.692 25.2011 129.767 25.7742 128.943 25.9201C128.125 26.0698 127.266 25.85 126.366 25.2608C125.887 24.9475 125.506 24.6084 125.223 24.2436L126.635 22.059C126.891 22.39 127.165 22.6506 127.455 22.8408C127.757 23.0385 128.085 23.0575 128.44 22.8979C128.798 22.7326 129.296 22.3247 129.936 21.6743C130.584 21.0219 131.59 19.9224 132.955 18.3758C134.328 16.8273 135.601 15.3472 136.772 13.9357L144.658 19.0993L136.533 31.6734Z" fill="#EC3F2E"/>
<path d="M143.277 38.5046L136.961 32.6563L147.049 21.6161L153.365 27.4644L151.613 29.3825L147.622 25.6873L145.407 28.1113L149.12 31.5495L147.368 33.4676L143.654 30.0294L141.053 32.8763L145.044 36.5715L143.277 38.5046Z" fill="#EC3F2E"/>
<path d="M148.946 45.7362L146.983 43.2439L156.599 35.5696L154.085 32.3778L156.146 30.7333L163.136 39.6094L161.076 41.2539L158.562 38.062L148.946 45.7362Z" fill="#EC3F2E"/>
<path d="M160.274 68.0568L158.852 64.7407L163.648 56.7363L156.713 59.7477L155.461 56.8272L169.144 50.8857L170.395 53.8061L163.769 56.6834L172.511 58.7426L173.843 61.8515L165.121 59.6831L160.274 68.0568Z" fill="#EC3F2E"/>
<path d="M177.27 76.9137L165.935 74.9246C164.517 74.6757 163.465 74.3755 162.777 74.0239C162.097 73.6706 161.535 73.1894 161.093 72.5802C160.659 71.9759 160.323 71.1855 160.086 70.2089C159.882 69.3718 159.792 68.5702 159.815 67.8038L162.448 67.1542C162.356 67.8107 162.414 68.5675 162.623 69.4245C162.754 69.9626 162.983 70.371 163.31 70.6496C163.636 70.9281 164.152 71.1072 164.857 71.1868L174.024 63.5803L174.82 66.8489L167.627 72.4366L167.652 72.5362C168.046 72.5447 168.691 72.6249 169.589 72.7767L176.494 73.7248L177.27 76.9137Z" fill="#EC3F2E"/>
<path d="M163.139 92.3497L162.908 89.1879L175.146 88.2822L174.744 82.7771L162.506 83.6828L162.274 80.5108L177.135 79.411L178 91.2499L163.139 92.3497Z" fill="#EC3F2E"/>
<path d="M177.481 94.7653L177.187 97.6124L170.03 96.8628L168.118 96.6213L165.949 96.291L165.943 96.3522L176.484 104.419L176.092 108.205L161.271 106.653L161.562 103.836L168.679 104.582C169.632 104.681 171.038 104.891 172.897 105.209L172.906 105.127L162.267 97.0193L162.66 93.2129L177.481 94.7653Z" fill="#EC3F2E"/>
<path d="M159.078 112.238L159.923 109.173L171.748 112.476L172.829 108.551L175.363 109.258L172.355 120.173L169.821 119.466L170.903 115.541L159.078 112.238Z" fill="#EC3F2E"/>
<path d="M157.027 128.848C154.208 127.538 153.658 125.008 155.378 121.257L157.198 117.288L170.727 123.575L169.403 126.463L164.212 124.051L163.69 125.187C162.876 126.963 161.889 128.169 160.729 128.806C159.569 129.442 158.335 129.456 157.027 128.848ZM158.224 121.268L157.78 122.237C157.333 123.212 157.16 123.998 157.26 124.595C157.367 125.194 157.735 125.64 158.364 125.933C158.987 126.222 159.54 126.2 160.022 125.867C160.511 125.536 161.011 124.812 161.524 123.694L161.861 122.958L158.224 121.268Z" fill="#EC3F2E"/>
<path d="M152.035 143.162L151.229 144.114C149.968 145.603 148.695 146.497 147.407 146.794C146.12 147.092 144.928 146.77 143.831 145.83C141.468 143.803 141.617 141.217 144.278 138.072L147.094 134.745L158.437 144.473L152.329 151.69L150.343 149.986L154.402 145.191L152.035 143.162ZM147.016 138.856L146.328 139.669C145.636 140.486 145.259 141.196 145.196 141.797C145.138 142.404 145.373 142.933 145.9 143.386C146.423 143.834 146.961 143.963 147.514 143.773C148.073 143.587 148.749 143.025 149.542 142.088L150.065 141.471L147.016 138.856Z" fill="#EC3F2E"/>
<path d="M147.966 155.644L145.769 157.462L141.199 151.866L140.007 150.342L138.695 148.573L138.647 148.612L140.517 161.807L137.596 164.225L128.133 152.637L130.306 150.839L134.85 156.403C135.459 157.148 136.313 158.291 137.414 159.833L137.477 159.781L135.566 146.487L138.503 144.056L147.966 155.644Z" fill="#EC3F2E"/>
<path d="M117.454 157.972L120.201 156.421L126.203 167.196L129.386 165.4L128.86 164.12C127.529 160.864 126.664 158.541 126.264 157.152C125.861 155.772 125.787 154.68 126.041 153.878C126.29 153.079 126.882 152.415 127.819 151.887C128.316 151.606 128.792 151.424 129.244 151.341L130.51 153.614C130.1 153.689 129.744 153.812 129.441 153.982C129.127 154.16 128.958 154.443 128.934 154.833C128.913 155.229 129.04 155.863 129.315 156.735C129.588 157.616 130.088 159.024 130.815 160.959C131.539 162.902 132.25 164.724 132.948 166.424L124.742 171.056L117.454 157.972Z" fill="#EC3F2E"/>
<path d="M108.313 160.811L116.392 157.897L121.418 172.018L113.339 174.932L112.466 172.479L117.571 170.638L116.467 167.537L111.717 169.25L110.844 166.797L115.594 165.084L114.298 161.442L109.193 163.284L108.313 160.811Z" fill="#EC3F2E"/>
<path d="M99.3161 162.504L102.421 161.912L104.705 174.049L108.681 173.291L109.17 175.892L98.1143 178L97.6248 175.399L101.6 174.641L99.3161 162.504Z" fill="#EC3F2E"/>
</svg>
