<svg width="361" height="361" viewBox="0 0 361 361" fill="none" xmlns="http://www.w3.org/2000/svg">
<path d="M318.228 180.676C318.228 254.786 257.946 314.87 183.577 314.87C109.208 314.87 48.9258 254.786 48.9258 180.676C48.9258 106.566 109.208 46.4814 183.577 46.4814C257.946 46.4814 318.228 106.566 318.228 180.676Z" stroke="#EC3F2E" stroke-width="2"/>
<path d="M176.46 360.676L178.647 329.922L166.612 329.07C161.763 328.727 159.104 329.407 156.368 331.775C152.798 334.865 151.477 339.373 151.151 343.951C150.801 348.875 152.108 353.135 154.865 355.978C157.621 358.821 160.918 359.576 164.728 359.845L176.46 360.676ZM171.418 355.717L165.4 355.291C158.646 354.813 156.133 350.381 156.581 344.075C157.03 337.769 159.362 333.115 166.592 333.627L172.956 334.077L171.418 355.717Z" fill="#EC3F2E"/>
<path d="M133.187 356.009L138.506 357.279L145.699 327.295L140.381 326.025L133.187 356.009Z" fill="#EC3F2E"/>
<path d="M100.636 328.244L112.834 333.375L114.453 329.545L106.774 326.315C108.579 322.045 112.723 319.372 117.922 321.559C123.561 323.931 125.217 329.374 122.384 336.078C119.584 342.701 114.488 345.397 109.009 343.092C105.13 341.46 103.247 338.224 104.081 334.581L99.242 332.545C97.2679 338.998 101.28 344.775 107.198 347.265C115.997 350.966 123.966 346.377 127.457 338.118C131.15 329.38 128.184 321.13 120.185 317.765C116.386 316.166 113.087 316.282 109.587 318.099L110.261 314.388L107.061 313.042L100.636 328.244Z" fill="#EC3F2E"/>
<path d="M80.0145 331.584L84.6386 334.497L101.137 308.428L96.5129 305.515L80.0145 331.584Z" fill="#EC3F2E"/>
<path d="M50.4781 308.263L69.7875 324.309L72.7875 320.716L65.2171 314.425L81.9945 294.328L77.8257 290.864L61.0484 310.961L53.478 304.67L50.4781 308.263Z" fill="#EC3F2E"/>
<path d="M38.634 293.526L42.3583 297.926L73.7027 287.105L70.0904 282.837L61.8629 285.801L53.9663 276.472L58.3296 268.942L54.5773 264.509L38.634 293.526ZM51.7732 280.19L57.8496 287.369L44.7931 292.078L51.7732 280.19Z" fill="#EC3F2E"/>
<path d="M37.7943 243.774L45.8335 257.242L23.31 270.624L26.1081 275.312L52.6591 259.537L41.8217 241.381L37.7943 243.774Z" fill="#EC3F2E"/>
<path d="M18.1071 224.729L21.6677 236.909L26.0843 235.624L22.5237 223.444L18.1071 224.729Z" fill="#EC3F2E"/>
<path d="M0.370657 192.342C1.24281 201.742 8.83459 206.52 17.8671 205.686C27.4614 204.8 33.4352 198.247 32.619 189.451C31.8069 180.698 24.7249 175.307 15.1306 176.193C5.5795 177.076 -0.433484 183.676 0.370657 192.342ZM4.91651 192.009C4.38842 186.318 8.54699 182.281 15.5915 181.63C22.6359 180.98 27.5531 184.178 28.0732 189.784C28.6093 195.561 24.4507 199.598 17.2766 200.261C10.3185 200.904 5.4406 197.658 4.91651 192.009Z" fill="#EC3F2E"/>
<path d="M3.32777 148.075L0.839761 173.023L5.50419 173.486L6.47963 163.705L32.5659 166.294L33.103 160.908L7.01676 158.319L7.99219 148.538L3.32777 148.075Z" fill="#EC3F2E"/>
<path d="M12.6177 115.63L5.54809 139.689L10.0462 141.005L12.8179 131.572L37.9742 138.93L39.5005 133.736L14.3442 126.378L17.1159 116.945L12.6177 115.63Z" fill="#EC3F2E"/>
<path d="M27.7849 85.4194L17.6778 105.213L45.213 119.208L55.4383 99.1832L51.3003 97.08L43.518 112.321L35.3967 108.193L42.5091 94.264L38.6031 92.2787L31.4907 106.207L24.1815 102.492L31.8456 87.4834L27.7849 85.4194Z" fill="#EC3F2E"/>
<path d="M50.2831 56.2787L34.7954 75.8578L59.0534 94.958L62.4144 90.7091L41.836 74.5061L50.6016 63.4249L71.18 79.6279L74.5411 75.379L50.2831 56.2787Z" fill="#EC3F2E"/>
<path d="M76.5936 33.6132L59.6465 48.0208L79.6894 71.4876L96.8348 56.9114L93.8227 53.3848L80.7737 64.4784L74.8622 57.5571L86.788 47.4183L83.9448 44.0895L72.019 54.2282L66.6986 47.999L79.5494 37.0739L76.5936 33.6132Z" fill="#EC3F2E"/>
<path d="M122.933 42.5296L107.733 15.6863L90.1613 25.5905L98.4493 41.4594C102.087 48.4111 101.253 50.3728 99.3262 51.4591C98.9483 51.6721 97.9987 52.1079 97.3037 52.2012L99.3532 55.8205C100.162 55.6633 101.407 55.3095 102.465 54.7132C106.319 52.5406 107.694 47.837 103.748 40.164L97.0016 27.1063L105.315 22.4204L118.21 45.1921L122.933 42.5296Z" fill="#EC3F2E"/>
<path d="M148.436 24.5066C146.54 18.7469 141.883 16.6723 135.45 18.7799L127.615 21.3469L123.932 10.1567L118.777 11.8455L128.419 41.1374L141.408 36.8816C147.8 34.7875 150.345 30.3074 148.436 24.5066ZM143.322 26.3188C144.365 29.4866 143.202 31.645 139.821 32.7529L132.192 35.2523L128.996 25.5432L136.542 23.0708C139.759 22.017 142.306 23.2333 143.322 26.3188Z" fill="#EC3F2E"/>
<path d="M193.028 0.675781L189.822 31.3404L201.822 32.5894C206.657 33.0926 209.337 32.5008 212.15 30.2249C215.821 27.2546 217.291 22.7927 217.768 18.2274C218.282 13.3176 217.117 9.01686 214.456 6.08417C211.795 3.1515 208.525 2.28873 204.727 1.89335L193.028 0.675781ZM197.903 5.79813L203.904 6.42265C210.638 7.12353 213.003 11.6363 212.345 17.9242C211.688 24.2122 209.202 28.7861 201.993 28.0358L195.647 27.3753L197.903 5.79813Z" fill="#EC3F2E"/>
<path d="M236.865 8.92503L231.652 7.27535L222.308 36.6633L227.521 38.313L236.865 8.92503Z" fill="#EC3F2E"/>
<path d="M269.513 38.1303L257.493 32.5984L255.748 36.3732L263.315 39.8556C261.369 44.0629 257.138 46.5982 252.015 44.2403C246.458 41.6829 244.983 36.188 248.037 29.5822C251.055 23.055 256.238 20.5286 261.638 23.0134C265.461 24.7727 267.235 28.0689 266.281 31.6832L271.049 33.8778C273.237 27.4929 269.419 21.5872 263.586 18.9029C254.915 14.9126 246.798 19.2362 243.035 27.3755C239.054 35.9867 241.744 44.3303 249.627 47.9578C253.371 49.6808 256.672 49.674 260.23 47.9736L259.434 51.6604L262.587 53.1114L269.513 38.1303Z" fill="#EC3F2E"/>
<path d="M291.59 36.5271L287.207 33.2648L268.729 57.9775L273.113 61.2398L291.59 36.5271Z" fill="#EC3F2E"/>
<path d="M317.096 58.9299L298.33 42.255L295.212 45.7474L302.569 52.2849L285.134 71.8161L289.186 75.416L306.621 55.8848L313.978 62.4223L317.096 58.9299Z" fill="#EC3F2E"/>
<path d="M328.447 74.0509L324.871 69.5301L293.184 79.3095L296.653 83.6944L304.974 81.0037L312.557 90.5892L307.946 97.9708L311.549 102.526L328.447 74.0509ZM314.872 86.9459L309.037 79.5697L322.243 75.2949L314.872 86.9459Z" fill="#EC3F2E"/>
<path d="M327.634 123.803L320.046 110.077L343.002 97.4461L340.361 92.6685L313.301 107.558L323.529 126.062L327.634 123.803Z" fill="#EC3F2E"/>
<path d="M345.139 140.094L340.768 128.18L336.448 129.757L340.818 141.672L345.139 140.094Z" fill="#EC3F2E"/>
<path d="M360.185 167.863C359.085 158.487 351.379 153.894 342.369 154.947C332.8 156.065 326.987 162.76 328.016 171.534C329.041 180.264 336.252 185.482 345.822 184.364C355.349 183.251 361.2 176.508 360.185 167.863ZM355.649 168.306C356.315 173.983 352.256 178.119 345.229 178.94C338.202 179.761 333.209 176.682 332.553 171.091C331.877 165.328 335.936 161.192 343.092 160.356C350.032 159.545 354.987 162.672 355.649 168.306Z" fill="#EC3F2E"/>
<path d="M358.307 212.19L360.188 187.188L355.514 186.838L354.776 196.64L328.635 194.682L328.229 200.08L354.37 202.037L353.633 211.839L358.307 212.19Z" fill="#EC3F2E"/>
<path d="M349.81 244.852L356.293 220.628L351.764 219.422L349.222 228.919L323.894 222.172L322.495 227.401L347.823 234.148L345.281 243.645L349.81 244.852Z" fill="#EC3F2E"/>
<path d="M335.384 275.419L345.007 255.387L317.14 242.062L307.404 262.329L311.592 264.331L319.002 248.907L327.221 252.837L320.449 266.934L324.402 268.824L331.174 254.727L338.571 258.264L331.274 273.454L335.384 275.419Z" fill="#EC3F2E"/>
<path d="M313.604 305.094L328.611 285.146L303.896 266.639L300.639 270.968L321.606 286.668L313.112 297.958L292.146 282.258L288.889 286.587L313.604 305.094Z" fill="#EC3F2E"/>
<path d="M287.849 328.39L304.441 313.577L283.834 290.602L267.048 305.589L270.145 309.041L282.92 297.635L288.998 304.412L277.322 314.836L280.246 318.095L291.921 307.671L297.392 313.769L284.81 325.002L287.849 328.39Z" fill="#EC3F2E"/>
<path d="M241.302 320.598L257.151 347.066L274.477 336.739L265.805 321.076C262 314.214 262.786 312.233 264.686 311.1C265.058 310.878 265.997 310.42 266.69 310.309L264.553 306.741C263.749 306.917 262.512 307.301 261.469 307.923C257.668 310.188 256.409 314.924 260.54 322.499L267.602 335.39L259.404 340.275L245.96 317.822L241.302 320.598Z" fill="#EC3F2E"/>
<path d="M216.247 339.232C218.282 344.944 222.989 346.906 229.368 344.643L237.138 341.887L241.093 352.985L246.205 351.172L235.854 322.122L222.972 326.691C216.633 328.939 214.197 333.479 216.247 339.232ZM221.315 337.297C220.196 334.155 221.306 331.969 224.659 330.78L232.225 328.097L235.656 337.726L228.172 340.38C224.982 341.511 222.406 340.357 221.315 337.297Z" fill="#EC3F2E"/>
</svg>
