<svg width="24" height="24" viewBox="0 0 24 24" fill="none" xmlns="http://www.w3.org/2000/svg">
<path fill-rule="evenodd" clip-rule="evenodd" d="M1.68707 1.68707C0 3.37413 0 6.0894 0 11.52V12.48C0 17.9106 0 20.6259 1.68707 22.313C3.37413 24 6.0894 24 11.52 24H12.48C17.9106 24 20.6259 24 22.313 22.313C24 20.6259 24 17.9106 24 12.48V11.52C24 6.0894 24 3.37413 22.313 1.68707C20.6259 0 17.9106 0 12.48 0H11.52C6.0894 0 3.37413 0 1.68707 1.68707ZM4.05005 7.2998C4.18005 13.5398 7.3 17.2898 12.77 17.2898H13.0801V13.7198C15.0901 13.9198 16.6099 15.3898 17.2199 17.2898H20.06C19.28 14.4498 17.2299 12.8798 15.9499 12.2798C17.2299 11.5398 19.0299 9.73981 19.4599 7.2998H16.8799C16.3199 9.27981 14.6601 11.0798 13.0801 11.2498V7.2998H10.5V14.2198C8.9 13.8198 6.88005 11.8798 6.79005 7.2998H4.05005Z" fill="#A2A2A2"/>
</svg>
