<svg width="24" height="24" viewBox="0 0 24 24" fill="none" xmlns="http://www.w3.org/2000/svg">
<path d="M12.58 8.38738C11.831 8.27631 11.066 8.40425 10.3939 8.753C9.72174 9.10175 9.17671 9.65355 8.83627 10.3299C8.49584 11.0063 8.37734 11.7728 8.49764 12.5204C8.61794 13.268 8.9709 13.9586 9.50633 14.494C10.0418 15.0295 10.7324 15.3824 11.48 15.5027C12.2276 15.623 12.9941 15.5045 13.6704 15.1641C14.3468 14.8237 14.8986 14.2786 15.2474 13.6065C15.5961 12.9344 15.724 12.1694 15.613 11.4204C15.4997 10.6564 15.1437 9.94902 14.5975 9.40286C14.0513 8.8567 13.344 8.50068 12.58 8.38738Z" fill="#A2A2A2"/>
<path fill-rule="evenodd" clip-rule="evenodd" d="M18 0H6C2.68629 0 0 2.68629 0 6V18C0 21.3137 2.68629 24 6 24H18C21.3137 24 24 21.3137 24 18V6C24 2.68629 21.3137 0 18 0ZM9.28849 6.6227C10.4087 6.04146 11.6836 5.82822 12.932 6.01334C14.2054 6.20217 15.3843 6.79554 16.2946 7.7058C17.2048 8.61607 17.7982 9.79496 17.987 11.0683C18.1721 12.3167 17.9589 13.5917 17.3777 14.7119C16.7964 15.8321 15.8767 16.7405 14.7495 17.3079C13.6222 17.8752 12.3447 18.0727 11.0987 17.8722C9.8527 17.6717 8.70166 17.0835 7.80928 16.1911C6.91689 15.2987 6.32862 14.1477 6.12812 12.9017C5.92762 11.6557 6.12511 10.3782 6.69251 9.2509C7.2599 8.12362 8.1683 7.20395 9.28849 6.6227ZM18.789 6.02227C19.4518 6.02227 19.989 5.48501 19.989 4.82227C19.989 4.15952 19.4518 3.62227 18.789 3.62227C18.1263 3.62227 17.589 4.15952 17.589 4.82227C17.589 5.48501 18.1263 6.02227 18.789 6.02227Z" fill="#A2A2A2"/>
</svg>
