<svg width="47" height="39" viewBox="0 0 47 39" fill="none" xmlns="http://www.w3.org/2000/svg">
<path d="M0 39C0 32.1679 0.0486542 27.2336 0.145963 24.1971C0.34058 16.0365 1.60559 10.0109 3.94099 6.12044C6.2764 2.13503 10.3634 0.0948893 16.2019 0L18.5373 6.40511C15.2288 6.59489 12.9907 7.82846 11.823 10.1058C10.6553 12.3832 10.0714 15.9416 10.0714 20.781H19.1211V39H0ZM27.8789 39C27.8789 32.1679 27.9275 27.2336 28.0248 24.1971C28.2195 16.0365 29.4845 10.0109 31.8199 6.12044C34.1553 2.13503 38.2422 0.0948893 44.0807 0L46.4161 6.40511C43.1077 6.59489 40.8696 7.82846 39.7019 10.1058C38.5342 12.3832 37.9503 15.9416 37.9503 20.781H47V39H27.8789Z" fill="white"/>
</svg>
